<?xml version="1.0" encoding="UTF-8"?>
<svg id="Layer_2" data-name="Layer 2" xmlns="http://www.w3.org/2000/svg" viewBox="0 0 850.43 177.61">
  <defs>
    <style>
      .cls-1 {
        fill: #fff;
      }
    </style>
  </defs>
  <g id="Layer_1-2" data-name="Layer 1">
    <g>
      <g>
        <rect class="cls-1" x="-8.06" y="40.96" width="117.8" height="21.99" transform="translate(-21.85 51.17) rotate(-45)"/>
        <rect class="cls-1" x="-9.47" y="115.26" width="117.76" height="22" transform="translate(-74.81 71.92) rotate(-45)"/>
        <polygon class="cls-1" points="156.03 1.93 103.11 54.85 140.63 92.37 72.88 160.11 88.44 175.67 171.73 92.37 134.21 54.85 171.58 17.49 156.03 1.93"/>
      </g>
      <g>
        <g>
          <path class="cls-1" d="M231.89,176.29c-1.95-.88-3.48-2.1-4.59-3.65-1.11-1.56-1.68-3.36-1.72-5.4h5.21c.18,1.75.9,3.23,2.18,4.43,1.27,1.2,3.13,1.8,5.56,1.8s4.16-.58,5.51-1.75c1.34-1.16,2.02-2.66,2.02-4.49,0-1.43-.4-2.6-1.18-3.49-.79-.9-1.77-1.58-2.95-2.04-1.18-.47-2.78-.97-4.78-1.51-2.47-.64-4.45-1.29-5.94-1.93-1.49-.65-2.76-1.66-3.81-3.04-1.06-1.38-1.59-3.23-1.59-5.56,0-2.04.52-3.85,1.56-5.43,1.04-1.58,2.5-2.79,4.38-3.65,1.88-.86,4.04-1.29,6.47-1.29,3.51,0,6.38.88,8.62,2.63,2.24,1.75,3.5,4.08,3.79,6.98h-5.37c-.18-1.43-.93-2.69-2.26-3.79-1.33-1.09-3.08-1.64-5.27-1.64-2.04,0-3.71.53-5,1.59-1.29,1.06-1.93,2.53-1.93,4.43,0,1.36.38,2.47,1.16,3.33.77.86,1.72,1.51,2.85,1.96,1.13.45,2.71.96,4.75,1.53,2.47.68,4.46,1.35,5.96,2.01,1.5.66,2.79,1.68,3.87,3.06,1.07,1.38,1.61,3.25,1.61,5.61,0,1.83-.48,3.55-1.45,5.16-.97,1.61-2.4,2.92-4.3,3.92-1.9,1-4.14,1.51-6.72,1.51s-4.68-.44-6.64-1.32Z"/>
          <path class="cls-1" d="M296.18,140.05v37.18h-4.89v-27.72l-12.36,27.72h-3.44l-12.41-27.78v27.78h-4.89v-37.18h5.27l13.75,30.73,13.75-30.73h5.21Z"/>
          <path class="cls-1" d="M326.59,168.9h-16.33l-3.01,8.33h-5.16l13.54-37.23h5.64l13.49,37.23h-5.16l-3.01-8.33ZM325.19,164.93l-6.77-18.91-6.77,18.91h13.54Z"/>
          <path class="cls-1" d="M360.38,177.23l-8.92-15.31h-5.91v15.31h-4.89v-37.45h12.09c2.83,0,5.22.48,7.17,1.45,1.95.97,3.41,2.27,4.38,3.92s1.45,3.53,1.45,5.64c0,2.58-.74,4.86-2.23,6.82-1.49,1.97-3.72,3.28-6.69,3.92l9.4,15.69h-5.86ZM345.55,158h7.2c2.65,0,4.64-.65,5.96-1.96,1.32-1.31,1.99-3.05,1.99-5.24s-.65-3.94-1.96-5.16c-1.31-1.22-3.3-1.83-5.99-1.83h-7.2v14.18Z"/>
          <path class="cls-1" d="M396.38,139.78v3.98h-10.21v33.47h-4.89v-33.47h-10.26v-3.98h25.36Z"/>
          <path class="cls-1" d="M439.01,142.07c2.99,1.52,5.28,3.7,6.88,6.53,1.59,2.83,2.39,6.16,2.39,9.99s-.8,7.16-2.39,9.97c-1.59,2.81-3.89,4.96-6.88,6.45-2.99,1.49-6.53,2.23-10.61,2.23h-11.66v-37.45h11.66c4.08,0,7.62.76,10.61,2.28ZM439.47,169.36c2.54-2.56,3.82-6.15,3.82-10.77s-1.28-8.29-3.84-10.91c-2.56-2.61-6.24-3.92-11.04-3.92h-6.77v29.44h6.77c4.84,0,8.52-1.28,11.07-3.84Z"/>
          <path class="cls-1" d="M476.86,168.9h-16.33l-3.01,8.33h-5.16l13.54-37.23h5.64l13.49,37.23h-5.16l-3.01-8.33ZM475.46,164.93l-6.77-18.91-6.77,18.91h13.54Z"/>
          <path class="cls-1" d="M513.99,139.78v3.98h-10.21v33.47h-4.89v-33.47h-10.26v-3.98h25.36Z"/>
          <path class="cls-1" d="M542.14,168.9h-16.33l-3.01,8.33h-5.16l13.54-37.23h5.64l13.49,37.23h-5.16l-3.01-8.33ZM540.74,164.93l-6.77-18.91-6.77,18.91h13.54Z"/>
          <path class="cls-1" d="M575.8,176.29c-1.95-.88-3.48-2.1-4.59-3.65-1.11-1.56-1.68-3.36-1.72-5.4h5.21c.18,1.75.9,3.23,2.18,4.43,1.27,1.2,3.13,1.8,5.56,1.8s4.16-.58,5.51-1.75c1.34-1.16,2.02-2.66,2.02-4.49,0-1.43-.4-2.6-1.18-3.49-.79-.9-1.77-1.58-2.95-2.04-1.18-.47-2.78-.97-4.78-1.51-2.47-.64-4.45-1.29-5.94-1.93-1.49-.65-2.76-1.66-3.81-3.04-1.06-1.38-1.59-3.23-1.59-5.56,0-2.04.52-3.85,1.56-5.43,1.04-1.58,2.5-2.79,4.38-3.65,1.88-.86,4.04-1.29,6.47-1.29,3.51,0,6.38.88,8.62,2.63,2.24,1.75,3.5,4.08,3.79,6.98h-5.37c-.18-1.43-.93-2.69-2.26-3.79-1.33-1.09-3.08-1.64-5.27-1.64-2.04,0-3.71.53-5,1.59-1.29,1.06-1.93,2.53-1.93,4.43,0,1.36.38,2.47,1.16,3.33.77.86,1.72,1.51,2.85,1.96,1.13.45,2.71.96,4.75,1.53,2.47.68,4.46,1.35,5.96,2.01,1.5.66,2.79,1.68,3.87,3.06,1.07,1.38,1.61,3.25,1.61,5.61,0,1.83-.48,3.55-1.45,5.16-.97,1.61-2.4,2.92-4.3,3.92-1.9,1-4.14,1.51-6.72,1.51s-4.68-.44-6.64-1.32Z"/>
          <path class="cls-1" d="M609.57,175.16c-2.87-1.63-5.13-3.9-6.8-6.82-1.67-2.92-2.5-6.21-2.5-9.86s.83-6.94,2.5-9.86c1.67-2.92,3.93-5.19,6.8-6.82,2.86-1.63,6.03-2.44,9.51-2.44s6.7.81,9.56,2.44c2.87,1.63,5.12,3.9,6.77,6.8,1.65,2.9,2.47,6.2,2.47,9.89s-.82,6.98-2.47,9.88c-1.65,2.9-3.9,5.17-6.77,6.8-2.87,1.63-6.05,2.44-9.56,2.44s-6.65-.81-9.51-2.44ZM626.14,171.54c2.09-1.22,3.74-2.96,4.94-5.21,1.2-2.26,1.8-4.87,1.8-7.84s-.6-5.63-1.8-7.87c-1.2-2.24-2.84-3.97-4.92-5.19-2.08-1.22-4.44-1.83-7.09-1.83s-5.02.61-7.09,1.83c-2.08,1.22-3.72,2.95-4.92,5.19-1.2,2.24-1.8,4.86-1.8,7.87s.6,5.59,1.8,7.84c1.2,2.26,2.85,3.99,4.94,5.21,2.1,1.22,4.45,1.83,7.07,1.83s4.97-.61,7.07-1.83Z"/>
          <path class="cls-1" d="M649.22,173.26h13.11v3.98h-18v-37.45h4.89v33.47Z"/>
          <path class="cls-1" d="M672.32,139.78v23.69c0,3.33.81,5.8,2.44,7.41s3.9,2.42,6.8,2.42,5.11-.81,6.74-2.42,2.44-4.08,2.44-7.41v-23.69h4.89v23.64c0,3.12-.63,5.74-1.88,7.87-1.25,2.13-2.95,3.72-5.08,4.75-2.13,1.04-4.52,1.56-7.17,1.56s-5.04-.52-7.17-1.56c-2.13-1.04-3.81-2.62-5.05-4.75-1.24-2.13-1.85-4.75-1.85-7.87v-23.64h4.89Z"/>
          <path class="cls-1" d="M726.86,139.78v3.98h-10.21v33.47h-4.89v-33.47h-10.26v-3.98h25.36Z"/>
          <path class="cls-1" d="M737.76,139.78v37.45h-4.89v-37.45h4.89Z"/>
          <path class="cls-1" d="M753.56,175.16c-2.87-1.63-5.13-3.9-6.8-6.82-1.67-2.92-2.5-6.21-2.5-9.86s.83-6.94,2.5-9.86c1.67-2.92,3.93-5.19,6.8-6.82,2.86-1.63,6.03-2.44,9.51-2.44s6.7.81,9.56,2.44c2.87,1.63,5.12,3.9,6.77,6.8,1.65,2.9,2.47,6.2,2.47,9.89s-.82,6.98-2.47,9.88c-1.65,2.9-3.9,5.17-6.77,6.8-2.87,1.63-6.05,2.44-9.56,2.44s-6.65-.81-9.51-2.44ZM770.13,171.54c2.09-1.22,3.74-2.96,4.94-5.21,1.2-2.26,1.8-4.87,1.8-7.84s-.6-5.63-1.8-7.87c-1.2-2.24-2.84-3.97-4.92-5.19-2.08-1.22-4.44-1.83-7.09-1.83s-5.02.61-7.09,1.83c-2.08,1.22-3.72,2.95-4.92,5.19-1.2,2.24-1.8,4.86-1.8,7.87s.6,5.59,1.8,7.84c1.2,2.26,2.85,3.99,4.94,5.21,2.1,1.22,4.45,1.83,7.07,1.83s4.97-.61,7.07-1.83Z"/>
          <path class="cls-1" d="M817.76,177.23h-4.89l-19.66-29.82v29.82h-4.89v-37.5h4.89l19.66,29.77v-29.77h4.89v37.5Z"/>
          <path class="cls-1" d="M831.33,176.29c-1.95-.88-3.48-2.1-4.59-3.65-1.11-1.56-1.68-3.36-1.72-5.4h5.21c.18,1.75.9,3.23,2.18,4.43,1.27,1.2,3.13,1.8,5.56,1.8s4.16-.58,5.51-1.75c1.34-1.16,2.02-2.66,2.02-4.49,0-1.43-.4-2.6-1.18-3.49-.79-.9-1.77-1.58-2.95-2.04-1.18-.47-2.78-.97-4.78-1.51-2.47-.64-4.45-1.29-5.94-1.93-1.49-.65-2.76-1.66-3.81-3.04-1.06-1.38-1.59-3.23-1.59-5.56,0-2.04.52-3.85,1.56-5.43,1.04-1.58,2.5-2.79,4.38-3.65,1.88-.86,4.04-1.29,6.47-1.29,3.51,0,6.38.88,8.62,2.63,2.24,1.75,3.5,4.08,3.79,6.98h-5.37c-.18-1.43-.93-2.69-2.26-3.79-1.33-1.09-3.08-1.64-5.27-1.64-2.04,0-3.71.53-5,1.59-1.29,1.06-1.93,2.53-1.93,4.43,0,1.36.38,2.47,1.16,3.33.77.86,1.72,1.51,2.85,1.96,1.13.45,2.71.96,4.75,1.53,2.47.68,4.46,1.35,5.96,2.01,1.5.66,2.79,1.68,3.87,3.06,1.07,1.38,1.61,3.25,1.61,5.61,0,1.83-.48,3.55-1.45,5.16-.97,1.61-2.4,2.92-4.3,3.92-1.9,1-4.14,1.51-6.72,1.51s-4.68-.44-6.64-1.32Z"/>
        </g>
        <g>
          <path class="cls-1" d="M296.04,47.37c-4.56-2.02-10.34-4.03-17.35-6.05-4.7-1.44-8.26-2.61-10.65-3.53-2.4-.91-4.41-2.11-6.05-3.6-1.64-1.49-2.45-3.34-2.45-5.54s.94-4.05,2.81-5.25c1.87-1.2,4.44-1.8,7.7-1.8,4.12,0,9.24,1.01,15.33,3.02,6.09,2.02,11.83,4.6,17.2,7.77l9.93-21.01c-5.38-3.45-11.62-6.21-18.72-8.28C286.7,1.05,279.49.01,272.21.01c-8.06,0-15.14,1.27-21.23,3.82-6.1,2.54-10.8,6.16-14.1,10.86-3.31,4.71-4.96,10.17-4.96,16.41,0,6.62,1.61,11.92,4.82,15.9,3.21,3.98,7.08,6.96,11.59,8.93s10.22,3.91,17.13,5.83c4.6,1.25,8.18,2.33,10.72,3.24,2.54.91,4.65,2.14,6.33,3.67,1.68,1.54,2.52,3.45,2.52,5.76,0,2.78-1.13,4.89-3.38,6.33-2.25,1.44-5.35,2.16-9.28,2.16-5.38,0-11.54-1.44-18.49-4.32-6.96-2.88-12.98-6.57-18.07-11.08l-10.22,20.59c6.05,5.09,13.22,9.1,21.52,12.02,8.3,2.92,16.62,4.39,24.98,4.39,7.58,0,14.47-1.2,20.65-3.6s11.06-5.97,14.61-10.72c3.55-4.75,5.33-10.48,5.33-17.2s-1.64-12.16-4.89-16.34c-3.27-4.18-7.18-7.27-11.74-9.29Z"/>
          <path class="cls-1" d="M386.94,77.6c-4.52,2.11-8.83,3.17-12.96,3.17-5.09,0-9.72-1.27-13.89-3.82-4.18-2.54-7.46-6.05-9.86-10.51-2.4-4.46-3.6-9.43-3.6-14.9s1.2-10.44,3.6-14.9c2.4-4.46,5.69-7.96,9.86-10.51,4.18-2.54,8.8-3.82,13.89-3.82,4.41,0,8.88,1.22,13.39,3.67,4.51,2.45,8.4,5.74,11.66,9.86l15.26-18.43c-5.09-5.37-11.28-9.62-18.57-12.74-7.29-3.12-14.68-4.68-22.17-4.68-10.17,0-19.36,2.25-27.57,6.77-8.21,4.52-14.66,10.7-19.36,18.57-4.7,7.87-7.06,16.7-7.06,26.49s2.31,18.81,6.91,26.77c4.6,7.97,10.94,14.25,19,18.86,8.07,4.6,17.08,6.91,27.06,6.91,7.39,0,14.85-1.7,22.38-5.11,7.53-3.4,14.03-7.99,19.5-13.74l-15.4-16.55c-3.55,3.66-7.58,6.54-12.09,8.65Z"/>
          <path class="cls-1" d="M499.93,9.65C492.83,3.23,482.85.01,469.99.01h-44.33v104.69h26.34v-28.98h17.99c12.86,0,22.84-3.41,29.94-10.23,7.1-6.82,10.65-16.4,10.65-28.75,0-11.64-3.55-20.68-10.65-27.1ZM481.14,49.75c-2.93,2.79-7.08,4.18-12.45,4.18h-16.7V21.82h16.7c5.37,0,9.52,1.37,12.45,4.11,2.92,2.74,4.39,6.64,4.39,11.73,0,5.27-1.46,9.3-4.39,12.09Z"/>
          <polygon class="cls-1" points="514.76 22.57 544.7 22.57 544.7 104.71 571.04 104.71 571.04 22.57 601.27 22.57 601.27 .01 514.76 .01 514.76 22.57"/>
          <path class="cls-1" d="M694.69,57.14c3.07-5.72,4.6-12.52,4.6-20.39,0-11.65-3.67-20.68-11.01-27.1C680.94,3.23,670.6.01,657.26.01h-45.34v104.69h26.34v-28.98h19.58l14.69,28.98h29.8l-21.01-34.2c5.85-3.19,10.31-7.65,13.38-13.37ZM669.86,49.75c-2.93,2.79-7.08,4.18-12.45,4.18h-19.14V21.82h19.14c5.37,0,9.52,1.37,12.45,4.11,2.92,2.74,4.39,6.64,4.39,11.73,0,5.27-1.47,9.3-4.39,12.09Z"/>
          <rect class="cls-1" x="716.14" y=".01" width="26.34" height="104.69"/>
          <path class="cls-1" d="M835.03,68.97c-3.55,3.65-7.58,6.53-12.09,8.64s-8.83,3.17-12.96,3.17c-5.09,0-9.72-1.27-13.89-3.82-4.18-2.54-7.46-6.05-9.86-10.51-2.4-4.46-3.6-9.43-3.6-14.9s1.2-10.44,3.6-14.9c2.4-4.46,5.69-7.96,9.86-10.51,4.18-2.54,8.8-3.82,13.89-3.82,4.41,0,8.88,1.22,13.39,3.67,4.51,2.45,8.4,5.74,11.66,9.86l15.26-18.43c-5.09-5.37-11.28-9.62-18.57-12.74C824.43,1.57,817.05,0,809.56,0c-10.17,0-19.36,2.25-27.57,6.77s-14.66,10.7-19.36,18.57c-4.7,7.87-7.06,16.7-7.06,26.49s2.31,18.81,6.91,26.77c4.6,7.97,10.94,14.25,19,18.86,8.07,4.6,17.08,6.91,27.06,6.91,7.39,0,14.85-1.7,22.38-5.11,7.53-3.4,14.03-7.99,19.5-13.74l-15.39-16.54Z"/>
        </g>
      </g>
    </g>
  </g>
</svg>