<?xml version="1.0" encoding="UTF-8"?>
<svg id="Layer_2" xmlns="http://www.w3.org/2000/svg" version="1.1" viewBox="0 0 850.4 177.6">
  <!-- Generator: Adobe Illustrator 29.8.2, SVG Export Plug-In . SVG Version: 2.1.1 Build 3)  -->
  <defs>
    <style>
      .st0 {
        fill: #fff;
      }
    </style>
  </defs>
  <g id="Layer_1-2">
    <g>
      <g>
        <rect class="st0" x="-8.1" y="41" width="117.8" height="22" transform="translate(-21.9 51.2) rotate(-45)"/>
        <rect class="st0" x="-9.5" y="115.3" width="117.8" height="22" transform="translate(-74.8 71.9) rotate(-45)"/>
        <polygon class="st0" points="156 1.9 103.1 54.8 140.6 92.4 72.9 160.1 88.4 175.7 171.7 92.4 134.2 54.8 171.6 17.5 156 1.9"/>
      </g>
      <g>
        <path class="st0" d="M296,47.4c-4.6-2-10.3-4-17.4-6-4.7-1.4-8.3-2.6-10.6-3.5-2.4-.9-4.4-2.1-6-3.6-1.6-1.5-2.5-3.3-2.5-5.5s.9-4,2.8-5.2,4.4-1.8,7.7-1.8,9.2,1,15.3,3c6.1,2,11.8,4.6,17.2,7.8l9.9-21c-5.4-3.4-11.6-6.2-18.7-8.3C286.7,1,279.5,0,272.2,0s-15.1,1.3-21.2,3.8c-6.1,2.5-10.8,6.2-14.1,10.9-3.3,4.7-5,10.2-5,16.4s1.6,11.9,4.8,15.9c3.2,4,7.1,7,11.6,8.9s10.2,3.9,17.1,5.8c4.6,1.2,8.2,2.3,10.7,3.2,2.5.9,4.6,2.1,6.3,3.7,1.7,1.5,2.5,3.4,2.5,5.8s-1.1,4.9-3.4,6.3-5.4,2.2-9.3,2.2-11.5-1.4-18.5-4.3c-7-2.9-13-6.6-18.1-11.1l-10.2,20.6c6.1,5.1,13.2,9.1,21.5,12,8.3,2.9,16.6,4.4,25,4.4s14.5-1.2,20.6-3.6,11.1-6,14.6-10.7,5.3-10.5,5.3-17.2-1.6-12.2-4.9-16.3c-3.3-4.2-7.2-7.3-11.7-9.3h0Z"/>
        <path class="st0" d="M386.9,77.6c-4.5,2.1-8.8,3.2-13,3.2s-9.7-1.3-13.9-3.8c-4.2-2.5-7.5-6.1-9.9-10.5s-3.6-9.4-3.6-14.9,1.2-10.4,3.6-14.9c2.4-4.5,5.7-8,9.9-10.5,4.2-2.5,8.8-3.8,13.9-3.8s8.9,1.2,13.4,3.7,8.4,5.7,11.7,9.9l15.3-18.4c-5.1-5.4-11.3-9.6-18.6-12.7S381,0,373.6,0s-19.4,2.2-27.6,6.8c-8.2,4.5-14.7,10.7-19.4,18.6s-7.1,16.7-7.1,26.5,2.3,18.8,6.9,26.8c4.6,8,10.9,14.2,19,18.9,8.1,4.6,17.1,6.9,27.1,6.9s14.9-1.7,22.4-5.1c7.5-3.4,14-8,19.5-13.7l-15.4-16.5c-3.5,3.7-7.6,6.5-12.1,8.7h0Z"/>
        <path class="st0" d="M499.9,9.6C492.8,3.2,482.9,0,470,0h-44.3v104.7h26.3v-29h18c12.9,0,22.8-3.4,29.9-10.2,7.1-6.8,10.6-16.4,10.6-28.8s-3.5-20.7-10.6-27.1h0ZM481.1,49.7c-2.9,2.8-7.1,4.2-12.5,4.2h-16.7V21.8h16.7c5.4,0,9.5,1.4,12.5,4.1,2.9,2.7,4.4,6.6,4.4,11.7s-1.5,9.3-4.4,12.1Z"/>
        <polygon class="st0" points="514.8 22.6 544.7 22.6 544.7 104.7 571 104.7 571 22.6 601.3 22.6 601.3 0 514.8 0 514.8 22.6"/>
        <path class="st0" d="M694.7,57.1c3.1-5.7,4.6-12.5,4.6-20.4,0-11.6-3.7-20.7-11-27.1C680.9,3.2,670.6,0,657.3,0h-45.3v104.7h26.3v-29h19.6l14.7,29h29.8l-21-34.2c5.8-3.2,10.3-7.7,13.4-13.4h0ZM669.9,49.7c-2.9,2.8-7.1,4.2-12.5,4.2h-19.1V21.8h19.1c5.4,0,9.5,1.4,12.5,4.1,2.9,2.7,4.4,6.6,4.4,11.7s-1.5,9.3-4.4,12.1Z"/>
        <rect class="st0" x="716.1" y="0" width="26.3" height="104.7"/>
        <path class="st0" d="M835,69c-3.5,3.7-7.6,6.5-12.1,8.6s-8.8,3.2-13,3.2-9.7-1.3-13.9-3.8c-4.2-2.5-7.5-6.1-9.9-10.5-2.4-4.5-3.6-9.4-3.6-14.9s1.2-10.4,3.6-14.9c2.4-4.5,5.7-8,9.9-10.5,4.2-2.5,8.8-3.8,13.9-3.8s8.9,1.2,13.4,3.7,8.4,5.7,11.7,9.9l15.3-18.4c-5.1-5.4-11.3-9.6-18.6-12.7C824.4,1.6,817,0,809.6,0s-19.4,2.2-27.6,6.8-14.7,10.7-19.4,18.6c-4.7,7.9-7.1,16.7-7.1,26.5s2.3,18.8,6.9,26.8c4.6,8,10.9,14.2,19,18.9,8.1,4.6,17.1,6.9,27.1,6.9s14.8-1.7,22.4-5.1c7.5-3.4,14-8,19.5-13.7l-15.4-16.5h0Z"/>
      </g>
    </g>
  </g>
  <g>
    <path class="st0" d="M225.6,166.7h4.4c0,4.4,2.6,6.6,7.6,6.6s7.3-2,7.3-5.8-2.1-5.7-8.2-6.6c-7.6-1.1-10.4-4-10.4-10.2s4-10.6,11.5-10.6,11,3.5,11,10.6h-4.4c0-4.2-2.2-6.3-6.8-6.3s-7,2-7,5.7,2,5.3,7.6,6.1c8,1.1,11,4.1,11,10.7s-3.9,10.6-11.6,10.6-11.9-3.6-11.9-11Z"/>
    <path class="st0" d="M288.5,177h-4.4v-30.1l-10.6,30.1h-3.2l-10.7-30.2v30.2h-4.2v-36.3h6.6l10,28.5,10-28.5h6.5v36.3Z"/>
    <path class="st0" d="M314.3,167.7h-13.3l-3,9.3h-4.5l12.1-36.3h4.4l12.1,36.3h-4.7l-3-9.3ZM302.4,163.3h10.5l-5.3-16.5-5.3,16.5Z"/>
    <path class="st0" d="M338.6,162.2h-7.3v14.7h-4.4v-36.3h12.7c7.5,0,10.7,3.2,10.7,10.8s-2,9.5-6.9,10.5l8.1,15.1h-5.1l-7.9-14.7ZM331.3,157.8h7.9c5,0,6.7-1.8,6.7-6.4s-1.7-6.4-6.7-6.4h-7.9v12.8Z"/>
    <path class="st0" d="M377.5,145.1h-9.8v31.9h-4.4v-31.9h-9.8v-4.4h24v4.4Z"/>
    <path class="st0" d="M392.4,166.7h4.4c0,4.4,2.6,6.6,7.6,6.6s7.3-2,7.3-5.8-2.1-5.7-8.2-6.6c-7.6-1.1-10.4-4-10.4-10.2s4-10.6,11.5-10.6,11,3.5,11,10.6h-4.4c0-4.2-2.2-6.3-6.8-6.3s-7,2-7,5.7,2,5.3,7.6,6.1c8,1.1,11,4.1,11,10.7s-3.9,10.6-11.6,10.6-11.9-3.6-11.9-11Z"/>
    <path class="st0" d="M433.1,161.5v15.5h-4.4v-15.5l-11.7-20.8h5.1l9,15.9,8.9-15.9h4.9l-11.7,20.8Z"/>
    <path class="st0" d="M445.7,166.7h4.4c0,4.4,2.6,6.6,7.6,6.6s7.3-2,7.3-5.8-2.1-5.7-8.2-6.6c-7.6-1.1-10.4-4-10.4-10.2s4-10.6,11.5-10.6,11,3.5,11,10.6h-4.4c0-4.2-2.2-6.3-6.8-6.3s-7,2-7,5.7,2,5.3,7.6,6.1c8,1.1,11,4.1,11,10.7s-3.9,10.6-11.6,10.6-11.9-3.6-11.9-11Z"/>
    <path class="st0" d="M495.4,145.1h-9.8v31.9h-4.4v-31.9h-9.8v-4.4h24v4.4Z"/>
    <path class="st0" d="M522.3,172.6v4.4h-22.1v-36.3h21.7v4.4h-17.3v11.2h14.8v4.4h-14.8v12h17.8Z"/>
    <path class="st0" d="M561.6,177h-4.4v-30.1l-10.6,30.1h-3.2l-10.7-30.2v30.2h-4.2v-36.3h6.6l10,28.5,10-28.5h6.5v36.3Z"/>
    <path class="st0" d="M567.8,166.7h4.4c0,4.4,2.6,6.6,7.6,6.6s7.3-2,7.3-5.8-2.1-5.7-8.2-6.6c-7.6-1.1-10.4-4-10.4-10.2s4-10.6,11.5-10.6,11,3.5,11,10.6h-4.4c0-4.2-2.2-6.3-6.8-6.3s-7,2-7,5.7,2,5.3,7.6,6.1c8,1.1,11,4.1,11,10.7s-3.9,10.6-11.6,10.6-11.9-3.6-11.9-11Z"/>
    <path class="st0" d="M607.9,166.7h4.4c0,4.4,2.6,6.6,7.6,6.6s7.3-2,7.3-5.8-2.1-5.7-8.2-6.6c-7.6-1.1-10.4-4-10.4-10.2s4-10.6,11.5-10.6,11,3.5,11,10.6h-4.4c0-4.2-2.2-6.3-6.8-6.3s-7,2-7,5.7,2,5.3,7.6,6.1c8,1.1,11,4.1,11,10.7s-3.9,10.6-11.6,10.6-11.9-3.6-11.9-11Z"/>
    <path class="st0" d="M636.6,163.1v-8.7c0-9.6,4.2-14.5,12.9-14.5s12.9,4.9,12.9,14.5v8.7c0,9.6-4.2,14.5-12.9,14.5s-12.9-4.9-12.9-14.5ZM657.9,163.1v-8.7c0-6.9-2.6-10.1-8.5-10.1s-8.5,3.2-8.5,10.1v8.7c0,6.9,2.6,10.1,8.5,10.1s8.5-3.2,8.5-10.1Z"/>
    <path class="st0" d="M690.2,172.5v4.4h-20.3v-36.3h4.4v31.9h16Z"/>
    <path class="st0" d="M694.2,165v-24.4h4.4v24.3c0,6,2,8.3,7.6,8.3s7.6-2.2,7.6-8.3v-24.3h4.2v24.4c0,8.8-3.6,12.6-11.9,12.6s-11.9-3.8-11.9-12.6Z"/>
    <path class="st0" d="M746,145.1h-9.8v31.9h-4.4v-31.9h-9.8v-4.4h24v4.4Z"/>
    <path class="st0" d="M750.8,140.6h4.4v36.3h-4.4v-36.3Z"/>
    <path class="st0" d="M762.7,163.1v-8.7c0-9.6,4.2-14.5,12.9-14.5s12.9,4.9,12.9,14.5v8.7c0,9.6-4.2,14.5-12.9,14.5s-12.9-4.9-12.9-14.5ZM784,163.1v-8.7c0-6.9-2.6-10.1-8.5-10.1s-8.5,3.2-8.5,10.1v8.7c0,6.9,2.6,10.1,8.5,10.1s8.5-3.2,8.5-10.1Z"/>
    <path class="st0" d="M820.6,140.6v36.3h-4.3l-16.2-29.3v29.3h-4.2v-36.3h5.2l15.2,27.6v-27.6h4.2Z"/>
    <path class="st0" d="M826.9,166.7h4.4c0,4.4,2.6,6.6,7.6,6.6s7.3-2,7.3-5.8-2.1-5.7-8.2-6.6c-7.6-1.1-10.4-4-10.4-10.2s4-10.6,11.5-10.6,11,3.5,11,10.6h-4.4c0-4.2-2.2-6.3-6.8-6.3s-7,2-7,5.7,2,5.3,7.6,6.1c8,1.1,11,4.1,11,10.7s-3.9,10.6-11.6,10.6-11.9-3.6-11.9-11Z"/>
  </g>
</svg>